Coordinates
version=1
nRows=13
nColumns=18
inDegrees=yes

Units are S.I. units (second, meters, Newtons, ...)
If the header above contains a line with 'inDegrees', this indicates whether rotational values are in degrees (yes) or radians (no).

endheader
time	ground_thorax_rot_x	ground_thorax_rot_y	ground_thorax_rot_z	ground_thorax_tx	ground_thorax_ty	ground_thorax_tz	clav_prot	clav_elev	scapula_abduction	scapula_elevation	scapula_upward_rot	scapula_winging	plane_elv	shoulder_elv	axial_rot	elbow_flexion	pro_sup
      0.00000000	      3.31747076	     -8.44220028	     -8.58095158	     -0.00604739	      0.00381315	      0.00427508	    -22.89328624	     -2.24537892	    -15.82181026	     -1.38589745	      9.04979940	      5.88096983	    -25.94682119	     17.93499745	     49.19936245	      0.00000000	     34.32000000
      0.01000000	      3.31677918	     -8.44289199	     -8.58165848	     -0.00618129	      0.00380199	      0.00433784	    -22.89349018	     -2.24493626	    -15.82205182	     -1.38569668	      9.05025205	      5.88075787	    -25.94689686	     17.93605021	     49.19928729	      0.00000000	     34.32000000
      0.02000000	      3.29936165	     -8.46871618	     -8.58554417	     -0.00623323	      0.00373543	      0.00433363	    -22.90033736	     -2.23519263	    -15.82704448	     -1.38373754	      9.06840012	      5.87380349	    -25.94403637	     17.97006209	     49.19547638	      0.00000000	     34.32000000
      0.03000000	      3.29892079	     -8.46897523	     -8.58569026	     -0.00628152	      0.00376035	      0.00439614	    -22.90038982	     -2.23498875	    -15.82696974	     -1.38370230	      9.06881982	      5.87364548	    -25.94391313	     17.97077357	     49.19539150	      0.00000000	     34.32000000
      0.04000000	      3.29070272	     -8.48430639	     -8.58264362	     -0.00624016	      0.00377205	      0.00443632	    -22.90284939	     -2.22664275	    -15.82212177	     -1.38350599	      9.09032278	      5.86601197	    -25.93448142	     18.00735298	     49.18905974	      0.00000000	     34.32000000
      0.05000000	      3.29044365	     -8.48468701	     -8.58314495	     -0.00624159	      0.00383722	      0.00444154	    -22.90285119	     -2.22617230	    -15.82222388	     -1.38316341	      9.09039703	      5.86588733	    -25.93447817	     18.00778198	     49.18893145	      0.00000000	     34.32000000
      0.06000000	      3.30302332	     -8.51002510	     -8.59601517	     -0.00614630	      0.00386710	      0.00438420	    -22.90092004	     -2.21502428	    -15.83116279	     -1.36970960	      9.07373481	      5.86784661	    -25.93788109	     18.00493656	     49.18111917	      0.00000000	     34.32000000
      0.07000000	      3.31801342	     -8.51406702	     -8.58623894	     -0.00613604	      0.00390776	      0.00429848	    -22.89405448	     -2.22000420	    -15.82713586	     -1.36818314	      9.05633636	      5.87358864	    -25.93379052	     17.97939400	     49.17467467	      0.00000000	     34.32000000
      0.08000000	      3.31869620	     -8.51420739	     -8.58572231	     -0.00613792	      0.00384016	      0.00425831	    -22.89392550	     -2.22041115	    -15.82698956	     -1.36837962	      9.05595423	      5.87377545	    -25.93366606	     17.97885612	     49.17456816	      0.00000000	     34.32000000
      0.09000000	      3.31901952	     -8.51431634	     -8.58560689	     -0.00620482	      0.00378343	      0.00431445	    -22.89381798	     -2.22062050	    -15.82681365	     -1.36849654	      9.05581922	      5.87385646	    -25.93360275	     17.97893242	     49.17448776	      0.00000000	     34.32000000
      0.10000000	      3.31927518	     -8.51472601	     -8.58601583	     -0.00628012	      0.00374753	      0.00438367	    -22.89376719	     -2.22053827	    -15.82682847	     -1.36838834	      9.05567316	      5.87387686	    -25.93369695	     17.97947315	     49.17441705	      0.00000000	     34.32000000
      0.11000000	      3.33683527	     -8.54127745	     -8.60672217	     -0.00622458	      0.00367707	      0.00448294	    -22.89261785	     -2.21273650	    -15.83105130	     -1.36022575	      9.04841366	      5.87408050	    -25.93907142	     18.01192361	     49.17074264	      0.00000000	     34.32000000
      0.12000000	      3.33799224	     -8.55419762	     -8.59837024	     -0.00623861	      0.00366579	      0.00445105	    -22.89369960	     -2.21623646	    -15.82044564	     -1.36903315	      9.06966886	      5.86913018	    -25.93281553	     18.06006039	     49.16650560	      0.00000000	     34.32000000
